<?xml version="1.0" encoding="UTF-8" standalone="no"?><!-- Generator: Gravit.io --><svg xmlns="http://www.w3.org/2000/svg" xmlns:xlink="http://www.w3.org/1999/xlink" style="isolation:isolate" viewBox="0 0 109.34 102.29" width="109.34pt" height="102.29pt"><defs><clipPath id="_clipPath_Wmzcx6h5ieyecuSr6OFuRVQTQYdPUb95"><rect width="109.34" height="102.29"/></clipPath></defs><g clip-path="url(#_clipPath_Wmzcx6h5ieyecuSr6OFuRVQTQYdPUb95)"><g><path d=" M 46.62 86.93 C 46.402 88.46 46.318 90.006 46.37 91.55 L 46.37 91.77 C 44.987 90.277 43.748 88.656 42.67 86.93 L 46.62 86.93 Z  M 91.23 51.13 L 91.23 86.93 L 71.46 86.93 C 69.309 90.672 66.009 93.621 62.05 95.34 C 59.595 96.442 57.065 97.371 54.48 98.12 C 67.92 105.66 84.804 102.756 94.952 91.158 C 105.1 79.56 105.737 62.44 96.48 50.12 C 94.71 50.4 92.97 50.73 91.27 51.12 L 91.23 51.13 Z " fill="rgb(244,218,64)"/><path d=" M 22.05 29.62 L 22.05 23.41 L 15.55 26.85 C 17.767 27.651 19.937 28.576 22.05 29.62 L 22.05 29.62 Z " fill="rgb(244,218,64)"/><path d=" M 66.35 0 L 32.82 17.72 L 67.87 17.72 C 68.69 11.774 68.171 5.72 66.35 0 Z " fill="rgb(244,218,64)"/><path d=" M 48.11 98.77 C 49.53 99.69 55.89 98.09 62.05 95.34 C 66.009 93.621 69.309 90.672 71.46 86.93 L 46.62 86.93 C 46.402 88.46 46.318 90.006 46.37 91.55 C 46.5 93.51 46.69 97.86 48.11 98.77 Z " fill="rgb(119,193,154)"/><path d=" M 108.34 31.4 C 104.45 33.15 94.61 38.47 89.28 41.4 L 89.28 85 L 29.4 85 C 27.915 87.125 25.824 88.753 23.4 89.67 C 19.34 91.23 15.6 90.41 12.09 87.85 C 10.908 86.978 9.892 85.901 9.09 84.67 C 7.627 82.5 6.982 79.881 7.27 77.28 C 8.1 71.28 13.68 66.21 19.67 66.58 C 20.461 66.62 21.244 66.761 22 67 L 22 17.72 L 89.24 17.72 L 89.24 26.17 C 91.426 23.756 93.8 21.518 96.34 19.48 C 97.09 18.842 98.21 18.908 98.88 19.63 C 102.516 22.632 105.901 25.926 109 29.48 C 109.9 30.5 108.72 31.23 108.34 31.4 Z  M 104.74 37.81 C 100.114 38.952 95.605 40.522 91.27 42.5 L 91.27 51.13 C 96.014 50.022 100.86 49.409 105.73 49.3 C 106.363 49.3 106.879 48.793 106.89 48.16 C 106.83 45.07 106.71 42.51 106.53 39.41 C 106.575 38.563 105.927 37.838 105.08 37.79 C 104.966 37.786 104.852 37.793 104.74 37.81 Z " fill="rgb(52,53,121)"/><path d=" M 12.17 69 C 14.3 67.289 16.98 66.411 19.71 66.53 C 20.505 66.569 21.291 66.71 22.05 66.95 L 22.05 29.62 C 12.25 24.81 2.84 23.09 2.05 25.91 C 1.27 31.01 3.05 36.4 5.36 40.78 C 6.21 42.4 11.56 50.43 15.03 52.31 C 12.09 53.45 -0.73 56.74 0 59.8 C 0.413 60.773 1.11 61.599 2 62.17 C 2.85 62.91 3.73 63.62 4.64 64.29 C 6.448 65.609 8.328 66.828 10.27 67.94 C 10.89 68.3 11.53 68.66 12.17 69 Z " fill="rgb(119,193,154)"/><path d=" M 50.37 28.27 C 50.37 26.07 48.95 25.07 46.62 25.07 L 42.91 25.07 L 42.91 34.87 L 44.85 34.87 L 44.85 31.43 L 46.52 31.43 L 48.62 34.87 L 50.81 34.87 L 48.56 31.16 C 49.678 30.635 50.385 29.505 50.37 28.27 Z  M 46.87 29.7 L 44.87 29.7 L 44.87 26.83 L 46.76 26.83 C 47.76 26.83 48.4 27.32 48.4 28.27 C 48.457 29.007 47.907 29.652 47.17 29.71 C 47.07 29.717 46.969 29.713 46.87 29.7 Z  M 38 33.25 C 38.827 33.301 39.65 33.11 40.37 32.7 L 40.37 34.65 C 39.625 34.981 38.814 35.131 38 35.09 C 35.244 35.249 32.881 33.145 32.72 30.39 C 32.72 30.26 32.72 30.13 32.72 30 C 32.72 27 34.72 24.89 38.01 24.89 C 38.807 24.868 39.6 25.011 40.34 25.31 L 40.34 27.31 C 39.627 26.911 38.816 26.72 38 26.76 C 36.203 26.67 34.671 28.049 34.572 29.846 C 34.472 31.643 35.844 33.182 37.64 33.29 L 38 33.29 L 38 33.25 Z  M 63.09 25.07 L 69.09 25.07 L 69.09 26.8 L 65 26.8 L 65 29.07 L 68.69 29.07 L 68.69 30.81 L 65 30.81 L 65 34.81 L 63.08 34.81 L 63.09 25.07 Z  M 78.56 25.07 L 78.56 26.8 L 75.78 26.8 L 75.78 34.8 L 73.78 34.8 L 73.78 26.8 L 71 26.8 L 71 25.07 L 78.56 25.07 Z  M 55.56 25.07 L 51.93 34.87 L 53.93 34.87 L 54.69 32.71 L 58.53 32.71 L 59.29 34.87 L 61.29 34.87 L 57.63 25.07 L 55.56 25.07 Z  M 55.3 30.94 L 56.53 27.47 L 56.68 27.47 L 57.92 30.94 L 55.3 30.94 Z  M 32.7 46.62 C 32.7 40.75 36.48 37.17 42.33 37.17 C 44.248 37.152 46.148 37.548 47.9 38.33 L 47.9 42 C 46.408 41.051 44.668 40.568 42.9 40.61 C 39.29 40.61 36.45 42.68 36.45 46.61 C 36.45 50.54 38.89 52.61 42.67 52.61 C 43.351 52.621 44.029 52.509 44.67 52.28 L 44.67 45.88 L 48.27 45.88 L 48.27 54.88 C 46.43 55.691 44.441 56.109 42.43 56.11 C 36.62 56.07 32.7 52.54 32.7 46.62 Z  M 52.4 55.62 L 56 55.62 L 56 37.54 L 52.4 37.54 L 52.4 55.62 Z  M 72.17 37.54 L 72.17 49.68 L 63.75 37.54 L 60.15 37.54 L 60.15 55.67 L 63.75 55.67 L 63.75 43.34 L 72.3 55.67 L 75.78 55.67 L 75.78 37.54 L 72.17 37.54 Z  M 68.88 69.17 L 68.88 69.17 C 68.71 69.51 68.49 69.46 68.6 69.08 C 69.671 65.631 71.046 62.285 72.71 59.08 C 72.97 58.58 70.42 57.45 70.16 58.02 C 68.822 60.674 67.705 63.433 66.82 66.27 C 63.08 75 60.82 76.14 61.98 71.77 C 62.547 69.533 63.32 67.354 64.29 65.26 L 64.38 65.08 C 64.68 64.4 62.08 63.32 61.82 64.08 C 61.1 66.074 60.22 68.007 59.19 69.86 C 57.72 72.36 56.39 74.13 57.35 70.49 C 57.871 68.46 58.608 66.492 59.55 64.62 C 59.86 64 57.29 63.34 57 64 C 56.53 65 56 66.3 55.28 67.94 C 52.38 74.83 49.86 78.71 51.45 71.3 C 52.186 67.27 53.603 63.394 55.64 59.84 C 55.99 59.32 53.37 58.13 53.09 58.78 C 51.673 61.837 50.486 64.996 49.54 68.23 L 49.54 68.23 C 42.98 79.92 32.77 77.93 38.16 67.23 C 43.55 56.53 50.64 58.73 46.38 64.15 C 45.8 64.87 46.13 64.98 47.26 64.6 C 47.938 64.401 48.543 64.008 49 63.47 C 50.89 60.79 46.14 56.02 41 58.62 C 35.86 61.22 29.79 71.69 37 76.62 C 42.12 80.06 46.64 74.53 48.86 70.96 C 48.742 71.795 48.678 72.637 48.67 73.48 C 48.45 78.48 52.05 78.73 54.67 71.08 L 54.67 71.08 C 54.26 75.59 57.88 75.86 59.57 71.08 C 59.66 70.83 59.84 70.86 59.77 71.15 L 59.77 71.15 C 59.742 71.235 59.719 71.322 59.7 71.41 C 59.21 73.41 59.44 75.16 60.57 75.41 C 60.713 75.43 60.857 75.43 61 75.41 L 61.19 75.41 C 62.058 75.214 62.828 74.714 63.36 74 C 64.388 72.638 65.241 71.154 65.9 69.58 C 65.52 71.087 65.22 72.612 65 74.15 C 64.86 75.59 67.53 76.59 67.53 75.92 C 67.543 75.585 67.576 75.251 67.63 74.92 C 69.51 76.24 72.23 78.05 74.98 70.14 C 77.73 62.23 73 61.45 68.88 69.17 Z  M 72.71 67.07 C 71.88 70.2 70.31 73.29 69.11 74.24 C 68.34 74.84 67.4 73.93 69.66 69.6 C 71.92 65.27 73.54 64 72.71 67.07 L 72.71 67.07 Z " fill="rgb(255,255,255)"/></g><rect x="32" y="57" width="45" height="23" transform="matrix(1,0,0,1,0,0)" fill="rgb(52,53,121)"/><g clip-path="url(#_clipPath_C4jYxJwINLrRd9R0zAxtPBTsOAOr4dE8)"><text transform="matrix(1,0,0,1,33.082,73.102)" style="font-family:'Open Sans';font-weight:700;font-size:16px;font-style:normal;fill:#ffffff;stroke:none;">SHOP</text></g><defs><clipPath id="_clipPath_C4jYxJwINLrRd9R0zAxtPBTsOAOr4dE8"><rect x="0" y="0" width="46" height="21.789" transform="matrix(1,0,0,1,33,56)"/></clipPath></defs></g></svg>