<?xml version="1.0" encoding="UTF-8" standalone="no"?><!-- Generator: Gravit.io --><svg xmlns="http://www.w3.org/2000/svg" xmlns:xlink="http://www.w3.org/1999/xlink" style="isolation:isolate" viewBox="0 0 512 512" width="512pt" height="512pt"><defs><clipPath id="_clipPath_7ff9zPatUWrkA7EBTgM0Q5qyQFjg0Iqg"><rect width="512" height="512"/></clipPath></defs><g clip-path="url(#_clipPath_7ff9zPatUWrkA7EBTgM0Q5qyQFjg0Iqg)"><mask id="_mask_UsTB97Ad3T5IvLuVj3NVExXKb5AjbRba" x="-200%" y="-200%" width="400%" height="400%"><rect x="-200%" y="-200%" width="400%" height="400%" style="fill:white;"/><path d=" M 336 208 L 336 113 C 336 68.817 300.183 33 256 33 C 211.817 33 176 68.817 176 113 L 176 208" fill="black" stroke="none"/></mask><path d=" M 336 208 L 336 113 C 336 68.817 300.183 33 256 33 C 211.817 33 176 68.817 176 113 L 176 208" fill="none"/><path d=" M 336 208 L 336 113 C 336 68.817 300.183 33 256 33 C 211.817 33 176 68.817 176 113 L 176 208" fill="none" mask="url(#_mask_UsTB97Ad3T5IvLuVj3NVExXKb5AjbRba)" vector-effect="non-scaling-stroke" stroke-width="64" stroke="rgb(0,0,0)" stroke-linejoin="round" stroke-linecap="round" stroke-miterlimit="4"/><path d="M 144 208 L 368 208 C 394.492 208 416 229.508 416 256 L 416 432 C 416 458.492 394.492 480 368 480 L 144 480 C 117.508 480 96 458.492 96 432 L 96 256 C 96 229.508 117.508 208 144 208 Z" style="fill:none;stroke:#000000;stroke-width:32;stroke-linecap:round;stroke-linejoin:round;stroke-miterlimit:2;"/><g clip-path="url(#_clipPath_lY2qKYGRnRYS1sOO37coA7DybYUQJGvr)"><text transform="matrix(1,0,0,1,123.165,328.266)" style="font-family:'Archivo Black';font-weight:400;font-size:47px;font-style:normal;fill:#000000;stroke:none;">MEMBERS</text><text transform="matrix(1,0,0,1,185.51,379.402)" style="font-family:'Archivo Black';font-weight:400;font-size:47px;font-style:normal;fill:#000000;stroke:none;">ONLY</text></g><defs><clipPath id="_clipPath_lY2qKYGRnRYS1sOO37coA7DybYUQJGvr"><rect x="0" y="0" width="267" height="103" transform="matrix(1,0,0,1,122.5,287)"/></clipPath></defs></g></svg>